<?xml version="1.0" encoding="UTF-8" standalone="no"?>
<!-- Created with Inkscape (http://www.inkscape.org/) -->

<svg
   xmlns:dc="http://purl.org/dc/elements/1.1/"
   xmlns:cc="http://creativecommons.org/ns#"
   xmlns:rdf="http://www.w3.org/1999/02/22-rdf-syntax-ns#"
   xmlns:svg="http://www.w3.org/2000/svg"
   xmlns="http://www.w3.org/2000/svg"
   xmlns:xlink="http://www.w3.org/1999/xlink"
   xmlns:sodipodi="http://sodipodi.sourceforge.net/DTD/sodipodi-0.dtd"
   xmlns:inkscape="http://www.inkscape.org/namespaces/inkscape"
   width="99.939255"
   height="206.30595"
   id="svg2"
   version="1.1"
   inkscape:version="0.47pre4 r22446"
   sodipodi:docname="CanVNC.svg">
  <defs
     id="defs4">
    <linearGradient
       id="linearGradient4299">
      <stop
         style="stop-color:#988542;stop-opacity:1;"
         offset="0"
         id="stop4301" />
      <stop
         id="stop4307"
         offset="0.5"
         style="stop-color:#968f44;stop-opacity:1;" />
      <stop
         style="stop-color:#a68c34;stop-opacity:1;"
         offset="1"
         id="stop4303" />
    </linearGradient>
    <linearGradient
       id="linearGradient3785">
      <stop
         id="stop3787"
         offset="0"
         style="stop-color:#959595;stop-opacity:1;" />
      <stop
         style="stop-color:#898989;stop-opacity:1;"
         offset="0.67047381"
         id="stop3799" />
      <stop
         style="stop-color:#a9a9a9;stop-opacity:1;"
         offset="0.75568044"
         id="stop3797" />
      <stop
         style="stop-color:#a5a5a5;stop-opacity:1;"
         offset="0.79966998"
         id="stop3793" />
      <stop
         id="stop3795"
         offset="0.86326343"
         style="stop-color:#999999;stop-opacity:1;" />
      <stop
         style="stop-color:#7c7c7c;stop-opacity:1;"
         offset="0.90712625"
         id="stop3791" />
      <stop
         id="stop3789"
         offset="1"
         style="stop-color:#a9a9a9;stop-opacity:1;" />
    </linearGradient>
    <linearGradient
       id="linearGradient3731">
      <stop
         style="stop-color:#545454;stop-opacity:1;"
         offset="0"
         id="stop3733" />
      <stop
         id="stop3846"
         offset="0.56667829"
         style="stop-color:#505050;stop-opacity:1;" />
      <stop
         id="stop3844"
         offset="0.67053682"
         style="stop-color:#666666;stop-opacity:1;" />
      <stop
         id="stop3842"
         offset="0.83781791"
         style="stop-color:#5e5e5e;stop-opacity:1;" />
      <stop
         id="stop3840"
         offset="0.92030114"
         style="stop-color:#7a7a7a;stop-opacity:1;" />
      <stop
         style="stop-color:#878787;stop-opacity:1;"
         offset="1"
         id="stop3735" />
    </linearGradient>
    <linearGradient
       id="linearGradient3717">
      <stop
         id="stop3719"
         offset="0"
         style="stop-color:#727272;stop-opacity:1;" />
      <stop
         style="stop-color:#747474;stop-opacity:1;"
         offset="0.9211008"
         id="stop3721" />
      <stop
         id="stop3723"
         offset="1"
         style="stop-color:#d4d4d4;stop-opacity:1;" />
    </linearGradient>
    <linearGradient
       id="linearGradient3709">
      <stop
         style="stop-color:#ffffff;stop-opacity:1;"
         offset="0"
         id="stop3711" />
      <stop
         id="stop3713"
         offset="0.9211008"
         style="stop-color:#ffffff;stop-opacity:1;" />
      <stop
         style="stop-color:#afafaf;stop-opacity:1;"
         offset="1"
         id="stop3715" />
    </linearGradient>
    <linearGradient
       id="linearGradient3686">
      <stop
         id="stop3688"
         offset="0"
         style="stop-color:#ffffff;stop-opacity:1;" />
      <stop
         style="stop-color:#ffffff;stop-opacity:1;"
         offset="0.92287487"
         id="stop3692" />
      <stop
         id="stop3690"
         offset="1"
         style="stop-color:#afafaf;stop-opacity:1;" />
    </linearGradient>
    <linearGradient
       id="linearGradient3670">
      <stop
         style="stop-color:#004541;stop-opacity:1;"
         offset="0"
         id="stop3672" />
      <stop
         style="stop-color:#01948b;stop-opacity:1;"
         offset="1"
         id="stop3674" />
    </linearGradient>
    <inkscape:perspective
       sodipodi:type="inkscape:persp3d"
       inkscape:vp_x="0 : 526.18109 : 1"
       inkscape:vp_y="0 : 1000 : 0"
       inkscape:vp_z="744.09448 : 526.18109 : 1"
       inkscape:persp3d-origin="372.04724 : 350.78739 : 1"
       id="perspective10" />
    <inkscape:perspective
       id="perspective2824"
       inkscape:persp3d-origin="0.5 : 0.33333333 : 1"
       inkscape:vp_z="1 : 0.5 : 1"
       inkscape:vp_y="0 : 1000 : 0"
       inkscape:vp_x="0 : 0.5 : 1"
       sodipodi:type="inkscape:persp3d" />
    <inkscape:perspective
       id="perspective2864"
       inkscape:persp3d-origin="0.5 : 0.33333333 : 1"
       inkscape:vp_z="1 : 0.5 : 1"
       inkscape:vp_y="0 : 1000 : 0"
       inkscape:vp_x="0 : 0.5 : 1"
       sodipodi:type="inkscape:persp3d" />
    <inkscape:perspective
       id="perspective2882"
       inkscape:persp3d-origin="0.5 : 0.33333333 : 1"
       inkscape:vp_z="1 : 0.5 : 1"
       inkscape:vp_y="0 : 1000 : 0"
       inkscape:vp_x="0 : 0.5 : 1"
       sodipodi:type="inkscape:persp3d" />
    <inkscape:perspective
       id="perspective3749"
       inkscape:persp3d-origin="0.5 : 0.33333333 : 1"
       inkscape:vp_z="1 : 0.5 : 1"
       inkscape:vp_y="0 : 1000 : 0"
       inkscape:vp_x="0 : 0.5 : 1"
       sodipodi:type="inkscape:persp3d" />
    <radialGradient
       inkscape:collect="always"
       xlink:href="#linearGradient3785"
       id="radialGradient3783"
       cx="260.75479"
       cy="137.1133"
       fx="260.75479"
       fy="137.1133"
       r="41.596474"
       gradientTransform="matrix(-0.12583059,-0.19440478,0.89765509,-0.63384936,172.30066,462.2061)"
       gradientUnits="userSpaceOnUse" />
    <inkscape:perspective
       id="perspective3856"
       inkscape:persp3d-origin="0.5 : 0.33333333 : 1"
       inkscape:vp_z="1 : 0.5 : 1"
       inkscape:vp_y="0 : 1000 : 0"
       inkscape:vp_x="0 : 0.5 : 1"
       sodipodi:type="inkscape:persp3d" />
    <radialGradient
       inkscape:collect="always"
       xlink:href="#linearGradient3686"
       id="radialGradient3882"
       gradientUnits="userSpaceOnUse"
       gradientTransform="matrix(-1.0985772,-0.00401592,0.00212173,-0.69324092,732.25992,1366.9308)"
       cx="329.43271"
       cy="715.71851"
       fx="329.43271"
       fy="715.71851"
       r="146.34375" />
    <linearGradient
       inkscape:collect="always"
       xlink:href="#linearGradient3670"
       id="linearGradient3884"
       gradientUnits="userSpaceOnUse"
       gradientTransform="matrix(1,0,0,1.1202951,4.196933,172.1637)"
       x1="217.38255"
       y1="483.62277"
       x2="407.44821"
       y2="485.38293" />
    <radialGradient
       inkscape:collect="always"
       xlink:href="#linearGradient3717"
       id="radialGradient3886"
       gradientUnits="userSpaceOnUse"
       gradientTransform="matrix(-1.032204,0.00478094,-2.5119625e-8,-0.24686143,711.7794,632.87468)"
       cx="329.46741"
       cy="718.86981"
       fx="329.46741"
       fy="718.86981"
       r="146.34375" />
    <radialGradient
       inkscape:collect="always"
       xlink:href="#linearGradient3731"
       id="radialGradient3888"
       gradientUnits="userSpaceOnUse"
       gradientTransform="matrix(1.4867262,-0.00941193,0.00301563,0.59319187,-182.47567,115.65487)"
       cx="371.94748"
       cy="682.38031"
       fx="371.94748"
       fy="682.38031"
       r="134.18954" />
    <inkscape:perspective
       id="perspective3940"
       inkscape:persp3d-origin="0.5 : 0.33333333 : 1"
       inkscape:vp_z="1 : 0.5 : 1"
       inkscape:vp_y="0 : 1000 : 0"
       inkscape:vp_x="0 : 0.5 : 1"
       sodipodi:type="inkscape:persp3d" />
    <inkscape:perspective
       id="perspective4049"
       inkscape:persp3d-origin="0.5 : 0.33333333 : 1"
       inkscape:vp_z="1 : 0.5 : 1"
       inkscape:vp_y="0 : 1000 : 0"
       inkscape:vp_x="0 : 0.5 : 1"
       sodipodi:type="inkscape:persp3d" />
    <linearGradient
       inkscape:collect="always"
       xlink:href="#linearGradient4299"
       id="linearGradient4305"
       x1="248.11162"
       y1="744.87892"
       x2="509.39554"
       y2="744.87892"
       gradientUnits="userSpaceOnUse" />
  </defs>
  <sodipodi:namedview
     id="base"
     pagecolor="#ffffff"
     bordercolor="#666666"
     borderopacity="1.0"
     inkscape:pageopacity="0.0"
     inkscape:pageshadow="2"
     inkscape:zoom="1.4142136"
     inkscape:cx="-4.2503637"
     inkscape:cy="29.425915"
     inkscape:document-units="px"
     inkscape:current-layer="g3801"
     showgrid="false"
     inkscape:snap-nodes="true"
     inkscape:snap-global="false"
     inkscape:window-width="1920"
     inkscape:window-height="947"
     inkscape:window-x="0"
     inkscape:window-y="25"
     inkscape:window-maximized="1" />
  <metadata
     id="metadata7">
    <rdf:RDF>
      <cc:Work
         rdf:about="">
        <dc:format>image/svg+xml</dc:format>
        <dc:type
           rdf:resource="http://purl.org/dc/dcmitype/StillImage" />
        <dc:title></dc:title>
      </cc:Work>
    </rdf:RDF>
  </metadata>
  <g
     inkscape:label="Layer 1"
     inkscape:groupmode="layer"
     id="layer1"
     transform="translate(-221.57948,-296.7311)">
    <g
       id="g3807">
      <g
         id="g3801"
         transform="matrix(0.33260136,0,0,0.29805172,147.88184,212.74067)">
        <path
           style="fill:url(#radialGradient3882);fill-opacity:1;fill-rule:nonzero;stroke:none"
           d="m 222.91393,869.44235 c -0.68281,3.61963 -1.05712,7.2939 -1.05712,11.0279 0,56.63872 67.16379,93.50963 150.0144,93.50963 82.85059,0 150.01439,-36.57781 150.01439,-93.50963 0,-3.734 -0.37432,-7.40827 -1.05712,-11.0279 l -297.91455,0 z"
           id="path2890"
           sodipodi:nodetypes="cssscc" />
        <path
           style="fill:url(#radialGradient3886);fill-opacity:1;fill-rule:nonzero;stroke:none"
           d="m 371.70069,425.3674 c -73.69967,0 -134.9815,12.14256 -147.45133,31.6283 l -1.24715,0 c -0.68162,1.51321 -1.05528,3.04928 -1.05528,4.61032 0,0.47846 0.0417,0.94804 0.0959,1.41968 -0.0543,0.47394 -0.0959,0.95339 -0.0959,1.43432 0,1.56104 0.37366,3.09711 1.05528,4.61033 l 1.27913,0 c 12.53425,19.39462 73.77553,31.62829 147.41935,31.62829 73.69912,0 134.98088,-12.14282 147.45133,-31.62829 l 1.24715,0 c 0.68162,-1.51322 1.05528,-3.04929 1.05528,-4.61033 0,-0.48326 -0.008,-0.95801 -0.064,-1.43432 0.0543,-0.47382 0.064,-0.93886 0.064,-1.41968 0,-1.56104 -0.37366,-3.09711 -1.05528,-4.61032 l -1.27913,0 C 506.60515,437.59338 445.36131,425.3674 371.70069,425.3674 z"
           id="path3698" />
        <path
           style="fill:url(#linearGradient3884);fill-opacity:1;fill-rule:nonzero;stroke:none"
           d="m 522.05708,464.47261 -0.13061,404.59848 c 0,130.31168 -299.8807,120.15734 -299.8807,3.53247 l -0.46629,-408.13095 c 25.40598,49.29797 272.27573,54.72314 300.4776,0 z"
           id="rect2872"
           sodipodi:nodetypes="ccccc" />
        <path
           style="fill:url(#radialGradient3888);fill-opacity:1;stroke:#cacaca;stroke-width:0.30000001;stroke-linecap:butt;stroke-linejoin:miter;stroke-miterlimit:4;stroke-opacity:1;stroke-dasharray:none"
           d="m 241.80881,452.87477 8.45205,2.38874 1.04923,-8.52502 9.18079,4.06577 7.08233,-8.52502 5.37732,4.45925 6.03309,-7.08233 6.68886,5.24617 6.68886,-7.86925 13.11542,4.72155 5.77078,-7.08233 11.27926,6.16425 4.72155,-7.60694 4.32809,8.13155 6.42655,-9.04963 8.78733,9.4431 7.34463,-9.18079 5.24617,5.77078 7.08232,-6.82002 7.08233,8.00041 6.42655,-7.08233 4.8527,6.55771 6.16425,-5.90194 4.32809,6.2954 5.11501,-5.50847 6.03309,5.63963 8.0004,-5.77079 4.06578,6.95117 7.21348,-6.2954 3.80347,7.21348 6.95117,-6.03309 3.54116,6.82002 8.13156,-4.98386 5.11501,7.08232 8.65618,-4.59039 3.27885,7.47579 8.91848,-4.5904 3.1477,6.42655 10.8858,-2.09846 -0.78693,4.45924 11.41042,-0.52462 -3.67232,3.54116 10.36118,1.31155 -7.60694,5.24616 4.45924,2.49193 -9.04964,3.80347 -4.8527,6.03309 -11.67272,-1.18038 -7.7381,6.95117 -8.0004,-2.36078 -3.01655,4.72155 -10.09887,-3.41001 -8.0004,6.82002 -10.8858,-5.63963 -7.60694,7.60694 -8.65617,-5.77078 -8.65618,7.73809 -8.52502,-4.59039 -9.18079,4.8527 -7.34463,-4.59039 -8.26271,4.8527 -9.70541,-4.45924 -7.73809,4.59039 -6.0331,-4.59039 -8.39386,4.06578 -7.7381,-4.85271 -8.0004,3.67232 -6.2954,-6.55771 -7.60694,4.98386 -6.03309,-4.98386 -6.82002,3.41001 -3.27885,-5.11501 -8.13156,3.1477 -2.88539,-7.34463 -7.47579,4.32808 -3.27885,-6.55771 -9.04964,3.93463 -3.27885,-6.55771 -7.7381,2.62308 -1.31154,-5.90193 -5.50847,2.49193 0.13115,-5.63963 -6.95117,-0.65577 6.55771,-2.09847 -6.82002,-4.59039 6.86116,1.47451 -2.4601,-5.4371 z"
           id="path3739"
           sodipodi:nodetypes="ccccccccccccccccccccccccccccccccccccccccccccccccccccccccccccccccccccccccccccccccccccccc" />
        <path
           style="fill:none;stroke:none;stroke-width:4.17185925999999974px;stroke-linecap:butt;stroke-linejoin:miter;stroke-opacity:1"
           d="m 297.60972,648.09107 c 28.24236,-12.34493 124.49759,-17.1208 162.57611,-1.28729"
           id="path3952"
           sodipodi:nodetypes="cc" />
        <g
           id="g4252"
           transform="translate(-4.0784906,10.923029)">
          <g
             transform="translate(0,-25.102181)"
             id="g3985">
            <path
               style="fill:url(#linearGradient4305);fill-opacity:1;stroke:none"
               d="m 263.01501,570.86683 c 57.18271,-39.29495 153.99227,-47.95633 230.85073,-0.61597 l -9.40843,66.69 24.93823,1.14888 -30.43321,301.39918 c -64.94937,17.49102 -132.78267,15.65955 -197.73205,-1.34266 l -33.11866,-299.35752 24.86381,-1.20423 -9.96042,-66.71768 z"
               id="path3862"
               sodipodi:nodetypes="ccccccccc" />
            <path
               style="fill:#000000;fill-opacity:1;stroke:#ffffff;stroke-width:5.16711569;stroke-linecap:butt;stroke-linejoin:miter;stroke-miterlimit:4;stroke-opacity:1;stroke-dasharray:none"
               d="m 284.21891,649.46669 -10.9923,-71.82428 c 44.36407,-36.31294 168.01777,-35.77021 211.55631,2.85488 l -10.58681,69.82517 26.54454,0.84089 -29.25482,276.98567 c -44.04304,16.3148 -141.1025,17.6866 -181.09829,-1.2873 l -32.38757,-275.54715 26.21894,-1.84788 z"
               id="path3864"
               sodipodi:nodetypes="ccccccccc" />
            <g
               transform="matrix(1.0178542,0,0,1.9409342,-6.3136119,-603.07167)"
               style="font-size:43.42781067px;font-style:normal;font-variant:normal;font-weight:bold;font-stretch:normal;fill:#ffffff;fill-opacity:1;stroke:#929426;stroke-width:1.45826018;stroke-miterlimit:4;stroke-opacity:1;font-family:Arial Black;-inkscape-font-specification:'Arial Black, Bold'"
               id="text3954">
              <path
                 id="path3983"
                 style="font-size:43.42781067px;fill:#ffffff;fill-opacity:1;stroke:#929426;stroke-width:1.45826018;stroke-miterlimit:4;stroke-opacity:1"
                 d="m 446.13255,609.18351 19.95461,4.9824 -1.68936,6.68135 -13.4655,-3.4047 -1.8631,4.34083 c 1.04284,-0.20291 2.04427,-0.29966 3.00428,-0.29025 0.97369,0.0129 1.90596,0.13198 2.79683,0.35721 3.01515,0.76239 5.23111,2.29236 6.64787,4.58991 1.41672,2.29757 1.77509,4.83059 1.07512,7.59906 -0.49211,1.94616 -1.45167,3.69392 -2.87868,5.24328 -1.41336,1.55283 -3.13043,2.57682 -5.15121,3.072 -2.00712,0.49864 -4.3949,0.39796 -7.16337,-0.30204 -1.98728,-0.50248 -3.64681,-1.11894 -4.9786,-1.84937 -1.31462,-0.74068 -2.37861,-1.60755 -3.19197,-2.60061 -0.79619,-1.0033 -1.3831,-2.05575 -1.76073,-3.15736 -0.37764,-1.10161 -0.59357,-2.41022 -0.64779,-3.92583 l 8.70381,1.21647 c -0.1375,1.40881 0.0806,2.56485 0.65416,3.46812 0.57705,0.88957 1.38638,1.46604 2.428,1.7294 1.16494,0.29456 2.2352,0.0986 3.2108,-0.58799 0.99272,-0.69678 1.71088,-1.92232 2.15446,-3.67661 0.45394,-1.79539 0.40287,-3.20813 -0.15323,-4.23823 -0.55613,-1.03007 -1.47148,-1.70625 -2.74606,-2.02854 -0.80863,-0.20444 -1.64008,-0.20324 -2.49436,0.004 -0.6347,0.14574 -1.38313,0.51061 -2.24527,1.09459 l -6.87373,-2.83162 6.67302,-15.48547 z m -35.50537,-4.18012 9.60652,0.79864 -2.27753,23.32056 14.92093,1.45721 -0.74406,7.61875 -24.48131,-2.3909 2.97545,-30.80426 z m -44.10192,-0.63726 12.64394,-0.043 4.90026,18.90887 4.83282,-18.92077 12.59575,-0.0154 0.038,31.08648 -7.84584,0.01 -0.029,-23.70715 -6.05685,23.71459 -7.10366,0.009 -6.0936,-23.69974 0.029,23.70716 -7.87859,0.064 -0.0322,-31.11407 -3e-5,3e-5 z m -36.02308,2.94875 29.08849,-2.57142 0.66801,7.64708 -9.75954,0.85255 2.03726,23.32149 -9.56942,0.83594 -2.03725,-23.32149 -9.75954,0.85254 -0.66801,-7.61669 z m -37.5716,7.37004 9.35669,-2.16894 2.43327,10.60253 10.23051,-2.34789 -2.43327,-10.60252 9.4038,-2.15817 6.95354,30.29884 -9.4038,2.15816 -2.81272,-12.25594 -10.23051,2.34789 2.81273,12.25594 -9.36246,2.14867 -6.94778,-30.27857 z"
                 sodipodi:nodetypes="cccccssssssssssccsssssssccccccccccccccccccccccccccccccccccccccccccccccc" />
            </g>
          </g>
          <g
             id="text3999"
             style="font-size:95.77692413px;font-style:normal;font-variant:normal;font-weight:normal;font-stretch:normal;fill:#ffffff;fill-opacity:1;stroke:none;font-family:IMPACT;-inkscape-font-specification:IMPACT"
             transform="scale(1.2560732,0.79613192)">
            <path
               id="path4071"
               d="m 376.9952,822.13564 0,75.71427 -17.25668,0 -10.24178,-34.41983 0,34.41983 -16.46165,0 0,-75.71427 16.46165,0 11.0368,34.09247 0,-34.09247 16.46166,0 m -58.5979,0 11.27062,75.71427 -20.15617,0 -0.98209,-13.60892 -7.06168,0 -1.16915,13.60892 -20.39001,0 10.00794,-75.71427 28.48054,0 m -10.42883,48.68348 c -0.99771,-8.57374 -1.99538,-19.15845 -2.99303,-31.75416 -1.99538,14.46635 -3.24247,25.05106 -3.74129,31.75416 l 6.73432,0 m -30.72532,-15.66663 -19.68851,0 0,-13.18804 c -3e-5,-3.83476 -0.21828,-6.21982 -0.65473,-7.15521 -0.40533,-0.96643 -1.32507,-1.44968 -2.7592,-1.44974 -1.62125,6e-5 -2.6501,0.57684 -3.08656,1.73034 -0.43651,1.15363 -0.65475,3.64781 -0.65472,7.48257 l 0,35.16809 c -3e-5,3.67895 0.21821,6.07961 0.65472,7.20198 0.43646,1.1224 1.41855,1.68359 2.94626,1.68358 1.46531,10e-6 2.41622,-0.56118 2.85273,-1.68358 0.46763,-1.12237 0.70147,-3.75686 0.7015,-7.90347 l 0,-9.49351 19.68851,0 0,2.94626 c -5e-5,7.82554 -0.56124,13.37511 -1.68358,16.64872 -1.09125,3.27364 -3.53867,6.14195 -7.34227,8.60496 -3.7725,2.46301 -8.43351,3.69452 -13.98306,3.69452 -5.76783,0 -10.52238,-1.04444 -14.26365,-3.13333 -3.74129,-2.08888 -6.21989,-4.97278 -7.43581,-8.65172 -1.21592,-3.71009 -1.82388,-9.27525 -1.82387,-16.69549 l 0,-22.12035 c -1e-5,-5.45599 0.18706,-9.54022 0.56119,-12.25272 0.37412,-2.74354 1.48092,-5.37803 3.32039,-7.90346 1.87064,-2.5253 4.44277,-4.50506 7.7164,-5.93929 3.30479,-1.46526 7.09284,-2.19793 11.36416,-2.19801 5.79896,8e-5 10.58469,1.12246 14.35719,3.36716 3.77242,2.24484 6.25101,5.0508 7.4358,8.41789 1.18469,3.33604 1.77706,8.54266 1.77711,15.61987 l 0,7.20198" />
          </g>
          <g
             id="text4007"
             style="font-size:96.1541748px;font-style:normal;font-variant:normal;font-weight:bold;font-stretch:normal;fill:#ffffff;fill-opacity:1;stroke:none;font-family:AlMohanad;-inkscape-font-specification:AlArabiya Bold"
             transform="scale(1.1879785,0.84176608)">
            <path
               id="path4074"
               style="fill:#00ff00;fill-opacity:1;font-family:Impact;-inkscape-font-specification:Impact Bold"
               d="m 294.93497,860.06562 -10.04736,76.0125 -30.00123,0 -11.40892,-76.0125 20.84592,0 c 2.4101,20.93988 4.1316,38.64012 5.16454,53.10077 1.03287,-14.61715 2.11273,-27.60672 3.23956,-38.96873 l 1.36156,-14.13204 20.84593,0" />
            <path
               id="path4076"
               style="fill:#003aff;fill-opacity:1;font-family:Impact;-inkscape-font-specification:Impact Bold"
               d="m 342.44865,860.06562 0,76.0125 -17.32465,0 -10.28211,-34.5554 0,34.5554 -16.5265,0 0,-76.0125 16.5265,0 11.08026,34.22676 0,-34.22676 16.5265,0" />
            <path
               id="path4078"
               style="fill:#ff0000;fill-opacity:1;font-family:Impact;-inkscape-font-specification:Impact Bold"
               d="m 396.48842,893.21252 -19.76607,0 0,-13.23998 c -3e-5,-3.84986 -0.21913,-6.24433 -0.6573,-7.18339 -0.40693,-0.97024 -1.33029,-1.4554 -2.77007,-1.45546 -1.62763,6e-5 -2.66054,0.57912 -3.09872,1.73716 -0.43822,1.15817 -0.65732,3.66218 -0.6573,7.51204 l 0,35.30661 c -2e-5,3.69344 0.21908,6.10355 0.6573,7.23035 0.43818,1.12682 1.42414,1.69022 2.95787,1.69021 1.47108,10e-6 2.42574,-0.56339 2.86397,-1.69021 0.46947,-1.1268 0.70422,-3.77166 0.70425,-7.9346 l 0,-9.53091 19.76607,0 0,2.95787 c -5e-5,7.85637 -0.56345,13.4278 -1.69021,16.7143 -1.09555,3.28653 -3.55262,6.16614 -7.37119,8.63885 -3.78736,2.47272 -8.46674,3.70907 -14.03814,3.70907 -5.79055,0 -10.56383,-1.04855 -14.31983,-3.14566 -3.75603,-2.09711 -6.2444,-4.99238 -7.4651,-8.68581 -1.22071,-3.7247 -1.83106,-9.31178 -1.83106,-16.76125 l 0,-22.20748 c 0,-5.47748 0.1878,-9.5778 0.5634,-12.30097 0.3756,-2.75435 1.48676,-5.39922 3.33347,-7.9346 1.87801,-2.53524 4.46027,-4.5228 7.7468,-5.96269 3.3178,-1.47103 7.12077,-2.20658 11.40892,-2.20666 5.8218,8e-5 10.62638,1.12688 14.41374,3.38042 3.78727,2.25369 6.27564,5.0707 7.46509,8.45105 1.18936,3.34918 1.78406,8.57631 1.78411,15.6814 l 0,7.23034" />
          </g>
          <g
             id="text4025"
             style="font-size:23.93845367px;font-style:normal;font-variant:normal;font-weight:bold;font-stretch:normal;fill:#9c8732;fill-opacity:1;stroke:none;font-family:AlMothnna;-inkscape-font-specification:AlMothnna Bold"
             transform="scale(1.0743088,0.93083107)">
            <path
               id="path4101"
               d="m 426.96149,857.36985 c 0.55856,2e-5 1.09939,0.0621 1.6225,0.18619 0.53196,0.12414 1.07279,0.35466 1.6225,0.69156 0.54968,0.33692 1.02845,0.76693 1.4363,1.29001 0.40783,0.51425 0.74031,1.20137 0.99744,2.06137 0.2571,0.86002 0.38566,1.83972 0.38567,2.93911 -10e-6,0.19506 -0.0133,0.38568 -0.0399,0.57186 l -8.65775,0 c 0.0266,0.50538 0.0754,0.93538 0.1463,1.29002 0.0709,0.34578 0.19505,0.69599 0.37237,1.05063 0.17732,0.34578 0.4433,0.61177 0.79795,0.79795 0.3635,0.17733 0.81567,0.26599 1.35651,0.26598 0.61176,10e-6 1.13929,-0.14185 1.5826,-0.42557 0.45216,-0.29258 0.78021,-0.69598 0.98414,-1.21022 l 3.29818,0 c -0.37238,1.26785 -1.0994,2.28302 -2.18106,3.0455 -1.08167,0.76249 -2.34509,1.14373 -3.79025,1.14373 -1.83529,0 -3.28046,-0.59403 -4.33552,-1.78209 -1.05507,-1.18805 -1.5826,-2.81941 -1.5826,-4.89408 0,-2.17218 0.53197,-3.88334 1.5959,-5.13347 1.07279,-1.25897 2.5357,-1.88846 4.38871,-1.88848 m 2.55344,5.51915 c -0.0709,-0.94867 -0.33249,-1.67568 -0.78465,-2.18106 -0.44331,-0.51422 -1.05064,-0.77134 -1.82198,-0.77135 -1.47178,10e-6 -2.31849,0.98414 -2.54014,2.95241 l 5.14677,0 m -15.45942,-2.80612 c -0.5497,10e-6 -1.01517,0.133 -1.39641,0.39897 -0.38124,0.25713 -0.66496,0.61177 -0.85114,1.06393 -0.17733,0.45218 -0.30145,0.89992 -0.37238,1.34322 -0.0709,0.44331 -0.10639,0.92208 -0.10639,1.43631 0,1.25899 0.24381,2.24755 0.73145,2.9657 0.48763,0.71816 1.15259,1.07724 1.99487,1.07723 0.64722,10e-6 1.15259,-0.17732 1.51611,-0.53196 0.37236,-0.35464 0.66494,-0.94867 0.87774,-1.78209 l 3.21839,0 c -0.15073,1.54271 -0.7359,2.76623 -1.75548,3.67057 -1.01961,0.89547 -2.31406,1.34321 -3.88335,1.34321 -1.91508,0 -3.40459,-0.5896 -4.46851,-1.76879 -1.05507,-1.18805 -1.5826,-2.84601 -1.5826,-4.97387 0,-2.19879 0.53639,-3.90551 1.60919,-5.12017 1.0728,-1.22351 2.5756,-1.83527 4.50841,-1.83529 1.61362,2e-5 2.91694,0.45219 3.90995,1.35652 0.99299,0.89548 1.54712,2.1323 1.66239,3.71046 l -3.21839,0 c -0.1862,-0.86 -0.46105,-1.46733 -0.82455,-1.82198 -0.35465,-0.35464 -0.87775,-0.53196 -1.5693,-0.53197 m -8.56983,10.43983 -3.35139,0 0,-1.52941 c -0.47878,0.71816 -1.02847,1.24126 -1.64909,1.5693 -0.61177,0.33691 -1.35652,0.50537 -2.23426,0.50537 -1.37425,0 -2.44261,-0.39011 -3.20509,-1.17032 -0.75362,-0.78022 -1.13043,-1.87961 -1.13043,-3.29819 l 0,-9.00352 3.35139,0 0,8.29866 c -10e-6,1.55157 0.71815,2.32736 2.15446,2.32735 0.81567,10e-6 1.47176,-0.23051 1.96827,-0.69155 0.49649,-0.46104 0.74474,-1.07723 0.74475,-1.84858 l 0,-8.08588 3.35139,0 0,12.92677 m -21.63023,0.54526 c -1.17919,0 -2.1323,-0.35464 -2.85932,-1.06393 -0.71815,-0.70929 -1.07723,-1.64466 -1.07723,-2.80612 0,-1.16145 0.31032,-2.07466 0.93094,-2.73962 0.62949,-0.66495 1.58703,-1.11269 2.87262,-1.34322 l 1.34321,-0.22608 c 0.27484,-0.0266 0.56742,-0.0709 0.87774,-0.13299 0.31918,-0.0621 0.61176,-0.13299 0.87775,-0.21279 0.26597,-0.0798 0.48319,-0.21721 0.65166,-0.41227 0.17731,-0.20391 0.26597,-0.4566 0.26598,-0.75805 -10e-6,-0.86 -0.6428,-1.29001 -1.92838,-1.29002 -0.81568,10e-6 -1.39198,0.12857 -1.72889,0.38567 -0.33691,0.25713 -0.55413,0.71817 -0.65165,1.38312 l -3.2184,0 c 0.23052,-2.98787 2.07023,-4.4818 5.51915,-4.48182 3.53756,2e-5 5.30634,1.32993 5.30636,3.98975 l 0,7.18153 c -2e-5,0.33692 0.0487,0.6162 0.14629,0.83785 0.10638,0.21279 0.3103,0.4566 0.61176,0.73145 l 0,0.41228 -3.63067,0 c -0.1596,-0.19506 -0.26599,-0.37238 -0.31918,-0.53197 -0.0443,-0.16846 -0.0665,-0.42114 -0.0665,-0.75805 -1.1792,1.22352 -2.48695,1.83528 -3.92325,1.83528 m 3.88335,-5.74523 0,-0.89104 c -0.24826,0.12413 -0.71373,0.25712 -1.39641,0.39897 l -1.15703,0.19949 c -0.69156,0.15073 -1.18362,0.36351 -1.4762,0.63836 -0.29259,0.26599 -0.43888,0.65166 -0.43887,1.15702 -10e-6,0.47878 0.16402,0.85558 0.49207,1.13043 0.32804,0.27485 0.77134,0.41228 1.32991,0.41227 0.84227,10e-6 1.49393,-0.26154 1.95497,-0.78465 0.46103,-0.53196 0.69155,-1.28557 0.69156,-2.26085 m -17.78676,1.43631 c 0.0532,0.26598 0.11969,0.4832 0.19949,0.65166 0.0798,0.16845 0.20835,0.34134 0.38567,0.51866 0.17732,0.17733 0.43444,0.31032 0.77135,0.39898 0.34578,0.0798 0.77135,0.11969 1.27672,0.11969 0.78021,0 1.38754,-0.11082 1.82198,-0.33248 0.4433,-0.23052 0.66495,-0.54526 0.66496,-0.94424 -10e-6,-0.26598 -0.0842,-0.47433 -0.25268,-0.62506 -0.1596,-0.15958 -0.44775,-0.30144 -0.86445,-0.42557 l -4.00304,-1.25012 c -0.15959,-0.0709 -0.35465,-0.12855 -0.58516,-0.17289 -0.23052,-0.0532 -0.47877,-0.15958 -0.74475,-0.31918 -0.25712,-0.15958 -0.50094,-0.3369 -0.73146,-0.53196 -0.22165,-0.20392 -0.40784,-0.4965 -0.55856,-0.87775 -0.14186,-0.38123 -0.21279,-0.81124 -0.21279,-1.29001 0,-1.32104 0.47877,-2.36724 1.43631,-3.1386 0.95754,-0.7802 2.25198,-1.17031 3.88335,-1.17033 1.72888,2e-5 3.08982,0.39013 4.08284,1.17033 1.00185,0.78023 1.52052,1.85302 1.556,3.21839 l -3.24499,0 c -0.0177,-1.16145 -0.82013,-1.74218 -2.40715,-1.74219 -0.58517,10e-6 -1.0595,0.11084 -1.42301,0.33248 -0.35464,0.2128 -0.53197,0.49651 -0.53196,0.85115 -10e-6,0.26599 0.0754,0.46548 0.22608,0.59846 0.15959,0.133 0.47877,0.27486 0.95754,0.42557 l 4.22913,1.21022 c 1.69341,0.51424 2.54012,1.60034 2.54013,3.25829 -10e-6,0.39011 -0.0488,0.77136 -0.14629,1.14373 -0.0975,0.37238 -0.27929,0.76248 -0.54526,1.17032 -0.266,0.39898 -0.60291,0.74919 -1.01074,1.05064 -0.40785,0.29258 -0.95311,0.53196 -1.63579,0.71815 -0.67383,0.19505 -1.44518,0.29258 -2.31405,0.29258 -1.95941,0 -3.45335,-0.36351 -4.48181,-1.09053 -1.02847,-0.72702 -1.56487,-1.79981 -1.6092,-3.21839 l 3.27159,0 m -23.74707,-9.16311 3.35138,0 0,1.86188 c 0.47877,-0.71814 1.02847,-1.24567 1.6491,-1.5826 0.62062,-0.3369 1.3698,-0.50535 2.24755,-0.50537 1.37424,2e-5 2.43817,0.39456 3.1918,1.18363 0.7536,0.78023 1.13041,1.87962 1.13042,3.29819 l 0,8.67104 -3.35138,0 0,-7.97949 c -10e-6,-1.54269 -0.71816,-2.31404 -2.15446,-2.31405 -0.81569,1e-5 -1.47178,0.23496 -1.96827,0.70485 -0.49651,0.46105 -0.74476,1.07281 -0.74476,1.83529 l 0,7.7534 -3.35138,0 0,-12.92677 m -8.26458,-0.22609 c 0.55855,2e-5 1.09938,0.0621 1.62249,0.18619 0.53196,0.12414 1.07279,0.35466 1.6225,0.69156 0.54968,0.33692 1.02845,0.76693 1.4363,1.29001 0.40783,0.51425 0.74031,1.20137 0.99744,2.06137 0.2571,0.86002 0.38566,1.83972 0.38567,2.93911 -1e-5,0.19506 -0.0133,0.38568 -0.0399,0.57186 l -8.65774,0 c 0.0266,0.50538 0.0754,0.93538 0.14629,1.29002 0.0709,0.34578 0.19505,0.69599 0.37237,1.05063 0.17732,0.34578 0.4433,0.61177 0.79795,0.79795 0.3635,0.17733 0.81567,0.26599 1.35651,0.26598 0.61176,10e-6 1.13929,-0.14185 1.5826,-0.42557 0.45216,-0.29258 0.78021,-0.69598 0.98414,-1.21022 l 3.29818,0 c -0.37238,1.26785 -1.0994,2.28302 -2.18106,3.0455 -1.08167,0.76249 -2.34509,1.14373 -3.79025,1.14373 -1.83529,0 -3.28046,-0.59403 -4.33552,-1.78209 -1.05507,-1.18805 -1.5826,-2.81941 -1.5826,-4.89408 0,-2.17218 0.53197,-3.88334 1.5959,-5.13347 1.07279,-1.25897 2.5357,-1.88846 4.38872,-1.88848 m 2.55343,5.51915 c -0.0709,-0.94867 -0.33249,-1.67568 -0.78465,-2.18106 -0.44331,-0.51422 -1.05064,-0.77134 -1.82198,-0.77135 -1.47178,10e-6 -2.31849,0.98414 -2.54014,2.95241 l 5.14677,0 m -15.37899,-5.51915 c 1.09052,2e-5 2.04806,0.31033 2.87261,0.93094 0.8334,0.62064 1.4629,1.44962 1.88848,2.48694 0.43443,1.02848 0.65164,2.18107 0.65166,3.45778 -2e-5,1.96828 -0.51425,3.60407 -1.5427,4.90738 -1.02848,1.29445 -2.3185,1.94168 -3.87005,1.94168 -1.58704,0 -2.78396,-0.70042 -3.59077,-2.10127 l 0,6.74267 -3.35138,0 0,-18.14003 3.35138,0 0,1.91508 c 0.81567,-1.42743 2.0126,-2.14115 3.59077,-2.14117 m -0.75805,2.80612 c -0.83342,10e-6 -1.51611,0.37682 -2.04807,1.13043 -0.52311,0.75363 -0.78466,1.73333 -0.78465,2.93911 -10e-6,1.20579 0.26154,2.18106 0.78465,2.92581 0.52309,0.74476 1.20578,1.11713 2.04807,1.11713 0.8334,0 1.51166,-0.37237 2.03477,-1.11713 0.52308,-0.74475 0.78463,-1.70228 0.78464,-2.87261 -10e-6,-1.23238 -0.26156,-2.22538 -0.78464,-2.97901 -0.51425,-0.76247 -1.1925,-1.14372 -2.03477,-1.14373 m -14.99333,-2.80612 c 2.02146,2e-5 3.59519,0.61178 4.7212,1.83529 1.13484,1.22353 1.70227,2.93025 1.70229,5.12017 -2e-5,2.0658 -0.57631,3.70603 -1.72889,4.92068 -1.15261,1.21465 -2.7086,1.82198 -4.668,1.82198 -1.98601,0 -3.55087,-0.60733 -4.6946,-1.82198 -1.14372,-1.22352 -1.71559,-2.89478 -1.71559,-5.01378 0,-2.11899 0.56743,-3.79024 1.70229,-5.01377 1.14373,-1.23238 2.70416,-1.84857 4.6813,-1.84859 m 0.0266,2.71303 c -0.91321,10e-6 -1.65353,0.38568 -2.22096,1.15702 -0.55857,0.7625 -0.83785,1.75993 -0.83784,2.99231 -10e-6,1.23239 0.27927,2.22983 0.83784,2.99231 0.56743,0.76248 1.30775,1.14373 2.22096,1.14372 0.89547,10e-6 1.62692,-0.38124 2.19436,-1.14372 0.56742,-0.76248 0.85113,-1.74662 0.85114,-2.95241 -10e-6,-1.25898 -0.27929,-2.26971 -0.83784,-3.03221 -0.54971,-0.77134 -1.28559,-1.15701 -2.20766,-1.15702 m -27.00536,-2.48694 3.35138,0 0,1.86188 c 0.47877,-0.71814 1.02846,-1.24567 1.6491,-1.5826 0.62062,-0.3369 1.3698,-0.50535 2.24755,-0.50537 1.37424,2e-5 2.43817,0.39456 3.19179,1.18363 0.75361,0.78023 1.13042,1.87962 1.13043,3.29819 l 0,8.67104 -3.35138,0 0,-7.97949 c -10e-6,-1.54269 -0.71816,-2.31404 -2.15446,-2.31405 -0.81569,1e-5 -1.47178,0.23496 -1.96828,0.70485 -0.4965,0.46105 -0.74475,1.07281 -0.74475,1.83529 l 0,7.7534 -3.35138,0 0,-12.92677 m -3.1947,-4.53501 0,3.00561 -3.35139,0 0,-3.00561 3.35139,0 m 0,4.53501 0,12.92677 -3.35139,0 0,-12.92677 3.35139,0" />
          </g>
          <g
             id="text4029"
             style="font-size:10.15989208px;font-style:normal;font-variant:normal;font-weight:normal;font-stretch:normal;fill:#bda834;fill-opacity:1;stroke:none;font-family:Times New Roman;-inkscape-font-specification:'Times New Roman,'"
             transform="scale(0.84967815,1.1769162)" />
          <g
             id="text4033"
             style="font-size:10.15989208px;font-style:normal;font-variant:normal;font-weight:normal;font-stretch:normal;fill:#bda834;fill-opacity:1;stroke:none;font-family:Times New Roman;-inkscape-font-specification:'Times New Roman,'"
             transform="scale(0.84967816,1.1769162)" />
          <g
             id="text4037"
             style="font-size:27.24809074px;font-style:normal;font-variant:normal;font-weight:normal;font-stretch:normal;fill:#bda834;fill-opacity:1;stroke:none;font-family:Times New Roman;-inkscape-font-specification:'Times New Roman,'"
             transform="scale(0.92854148,1.0769578)">
            <path
               style="font-weight:bold;fill:#bda834;-inkscape-font-specification:AlArabiya Bold"
               d="m 427.70569,583.51485 c 0.0246,3.63218 -1.03737,8.63359 -5.26618,9.35988 -4.31711,0.42858 -6.23414,-4.50059 -6.3397,-8.07097 -0.16361,-3.92827 0.43609,-9.48345 5.01671,-10.61385 5.12892,-0.66555 6.68235,5.40413 6.58917,9.32494 z m -4.09785,-0.0266 c -0.44398,-2.48456 1.42134,-9.06522 -2.67424,-8.12919 -1.56182,3.57039 -0.51353,7.79068 -0.82156,11.6167 -0.73195,2.18557 1.3763,7.33308 3.24302,3.58729 0.38565,-2.32305 0.15651,-4.72395 0.25278,-7.0748 z m -13.27813,-9.36654 c 0.0767,5.62621 -0.16597,11.27123 0.14636,16.88371 0.98761,1.13576 4.13968,1.47558 0.96469,1.53004 -2.64989,0 -5.29979,0 -7.94968,0 1.30529,-0.73136 4.03781,-1.59 2.96696,-4.54446 -0.0625,-3.33977 0.13536,-6.69737 -0.11975,-10.02422 -1.19491,-1.31227 -4.73853,-0.0413 -1.47559,-1.54773 1.82909,-0.70971 3.57453,-1.89024 5.46701,-2.29734 z m -9.87211,9.39314 c 0.0246,3.63218 -1.03737,8.63359 -5.26618,9.35988 -4.31711,0.42858 -6.23414,-4.50059 -6.3397,-8.07097 -0.16361,-3.92827 0.43609,-9.48345 5.01671,-10.61385 5.12892,-0.66555 6.68235,5.40413 6.58917,9.32494 z m -4.09785,-0.0266 c -0.44398,-2.48456 1.42134,-9.06522 -2.67424,-8.12919 -1.56182,3.57039 -0.51353,7.79068 -0.82156,11.6167 -0.73195,2.18557 1.3763,7.33308 3.24302,3.58729 0.38565,-2.32305 0.15651,-4.72395 0.25278,-7.0748 z m -10.86997,9.04721 c -3.53906,0 -7.07812,0 -10.61718,0 1.74328,-2.93499 4.65207,-5.40918 6.16695,-8.61668 2.16014,-2.84493 -0.0914,-8.46876 -3.99495,-6.15821 -3.44332,4.12378 -0.63277,-3.32533 1.9059,-3.33284 3.57871,-1.55864 7.91174,2.20235 6.4661,5.94722 -0.92554,3.51916 -4.70117,6.36633 -6.38439,8.67467 2.08062,-0.16102 4.34689,0.41659 6.258,-0.51888 1.76804,-3.02771 0.8922,0.61212 0.62073,1.8324 -0.14038,0.72411 -0.28077,1.44821 -0.42116,2.17232 z m 66.37608,-5.63016 c 1.42867,-0.56597 0.68322,-2.89073 0.867,-4.35756 0.80399,-1.73271 -2.0681,-3.48602 0.46137,-2.99377 2.72028,-0.56975 5.58465,1.4143 4.82032,4.44279 -0.28694,3.36862 -3.73879,2.90555 -6.14881,2.90848 m 2.34695,-6.93388 c 0.0882,2.14035 -0.18712,4.38151 0.15887,6.45138 2.94722,0.48998 2.82804,-6.88974 -0.15888,-6.45141 m -2.81447,-0.4174 c 0.0222,1.7048 0.13925,2.59829 -0.97146,0.52045 -1.97175,-0.72924 -0.70703,2.16736 -1.06226,3.22361 -0.71941,1.46389 1.27895,3.87725 0.21195,3.60729 -1.71374,-0.13646 -3.29049,0.54384 -1.68718,-1.25774 0,-1.89024 0,-3.78048 0,-5.67072 -1.90798,-0.0711 -2.15861,2.84789 -2.02009,-0.20454 0.89554,-0.50572 2.72697,-0.0756 3.98546,-0.21833 0.51457,0 1.02914,0 1.54371,0 m -6.67319,-0.16809 c 0.007,1.30562 0.31252,3.97169 -0.78529,0.97041 -2.96833,-1.89317 -2.10116,2.41308 0.29164,2.60089 2.55953,2.08134 -0.64737,5.24474 -3.01085,3.78542 -0.79465,0.87354 -0.42869,-4.88312 0.29308,-0.99956 2.91204,2.92139 3.23156,-2.21867 0.0928,-2.52431 -2.16275,-2.97474 0.2946,-3.82048 3.11867,-3.83286 m -8.0441,0.59092 c -0.39267,1.77923 0.38794,4.76938 1.30738,1.25775 0.40231,0.93825 0.0577,2.62344 0.17251,3.84915 -0.49219,-2.10256 -2.00397,-1.83367 -1.47989,0.36323 0.59277,3.64694 4.32769,-3.32767 3.0419,0.8808 -0.26528,1.24871 -2.51472,0.26425 -3.61108,0.57758 -2.89497,0.34938 -0.57269,-0.41173 -0.9106,-2.36481 -0.0885,-1.53788 0.1985,-3.16787 -0.19067,-4.63413 -1.67785,-0.62438 2.06908,-0.25379 2.86624,-0.35239 1.80646,-0.72637 1.9295,1.17729 1.43725,2.17396 0.0142,-1.55395 -1.38402,-1.9092 -2.63293,-1.7511 m -72.24553,6.92844 c 1.42873,-0.56597 0.68336,-2.89073 0.8671,-4.35756 0.80399,-1.73271 -2.0681,-3.48602 0.46137,-2.99377 2.72028,-0.56975 5.58466,1.41429 4.82033,4.44279 -0.28695,3.36862 -3.7388,2.90555 -6.14882,2.90848 m 2.34695,-6.93388 c 0.0882,2.14035 -0.18711,4.3815 0.15886,6.45138 2.94723,0.48999 2.82804,-6.88975 -0.15888,-6.45141 m -2.81455,-0.4174 c 0.0222,1.7048 0.13925,2.59829 -0.97146,0.52045 -1.97174,-0.72923 -0.70702,2.16736 -1.06225,3.22361 -0.71942,1.46389 1.27896,3.87725 0.21196,3.60729 -1.71373,-0.13646 -3.29051,0.54383 -1.68718,-1.25774 0,-1.89024 0,-3.78048 0,-5.67072 -1.90798,-0.0711 -2.15862,2.84789 -2.0201,-0.20454 0.89554,-0.50572 2.72697,-0.0756 3.98546,-0.21833 0.51457,0 1.02914,0 1.54371,0 m -6.67319,-0.16809 c 0.007,1.30559 0.31251,3.97171 -0.78527,0.97041 -2.96834,-1.89316 -2.10117,2.41307 0.29163,2.60089 2.55954,2.08134 -0.64737,5.24474 -3.01085,3.78542 -0.79465,0.87355 -0.42868,-4.88313 0.29309,-0.99956 2.91204,2.92138 3.23154,-2.21867 0.0928,-2.52431 -2.16274,-2.97473 0.29458,-3.82048 3.11867,-3.83286 m -8.0441,0.59092 c -0.39267,1.77923 0.38794,4.76938 1.30739,1.25775 0.40228,0.93827 0.0577,2.62344 0.1725,3.84915 -0.4922,-2.10258 -2.00397,-1.83366 -1.47989,0.36323 0.59256,3.64694 4.32766,-3.32768 3.04179,0.88079 -0.26528,1.24872 -2.51471,0.26426 -3.61108,0.57759 -2.89497,0.34938 -0.57267,-0.41174 -0.91059,-2.36481 -0.0885,-1.53789 0.19849,-3.16786 -0.19066,-4.63413 -1.67785,-0.62438 2.06908,-0.25379 2.86624,-0.35239 1.80646,-0.72637 1.92947,1.17727 1.43725,2.17396 0.0142,-1.55395 -1.38402,-1.9092 -2.63294,-1.7511"
               id="path4119" />
          </g>
          <path
             id="path4055"
             d="m 381.52461,825.07605 c -17.45966,0 -31.67448,15.94931 -31.67448,35.74033 0,15.43196 8.63926,28.58241 20.72382,33.63794 l 7.65368,-22.60049 c -4.44119,-1.53594 -7.65368,-5.90572 -7.65368,-11.16884 0,-6.53674 4.96081,-11.95724 11.0684,-11.95724 6.10761,0 11.06841,5.4205 11.06841,11.95724 0,4.99854 -2.851,9.30509 -6.94719,11.03744 l 7.41818,22.46911 c 11.64866,-5.28394 19.89959,-18.2721 19.89959,-33.37516 0,-19.79102 -14.09709,-35.74033 -31.55673,-35.74033 z"
             style="fill:#49b157;fill-opacity:1;fill-rule:nonzero;stroke:#13521b;stroke-width:2.55858636;stroke-linecap:round;stroke-linejoin:round;stroke-miterlimit:4;stroke-opacity:1;stroke-dasharray:none;stroke-dashoffset:0" />
        </g>
      </g>
      <path
         inkscape:transform-center-y="-28.06766"
         inkscape:transform-center-x="-36.284115"
         style="fill:url(#radialGradient3783);fill-opacity:1;stroke:#cacaca;stroke-width:0.11289795;stroke-linecap:butt;stroke-linejoin:miter;stroke-miterlimit:4;stroke-opacity:1;stroke-dasharray:none"
         d="m 300.46429,301.82249 -2.95935,0.89566 1.85642,3.00626 -3.58534,0.49011 0.17387,4.20517 -2.6238,-0.39486 0.10283,3.5232 -3.18794,-0.39249 0.11832,3.91178 -4.84798,1.05676 0.17597,3.47109 -4.69959,0.21841 0.60084,3.43475 -2.8207,-0.84889 0.0528,3.28735 -4.22664,-0.48215 -0.33849,3.60183 -2.91783,-0.85136 -0.25594,3.64561 -3.99198,-1.21821 -0.007,3.6014 -3.00647,-1.18779 -0.23132,3.16189 -2.79405,-1.20598 -0.0379,2.82426 -3.10424,-0.65194 -0.77647,3.48372 -2.8862,-1.47331 -0.42477,3.49952 -2.87917,-1.61152 -0.41773,3.3613 -2.70683,-1.53453 -1.01143,3.25154 -3.21187,-1.30786 -1.25693,3.22666 -2.79899,-1.80186 -1.33009,3.27878 -2.4979,-1.48358 -2.50693,2.85192 -0.90464,-1.61983 -3.04998,2.43966 0.13152,-1.89192 -3.22022,1.62854 0.79899,-3.23336 -2.91341,-0.52991 3.18935,-3.02037 -0.75022,-2.37228 3.55295,-1.93222 0.40577,-3.81899 2.82633,-0.81507 -0.34894,-2.14898 3.36299,-1.23455 0.82506,-3.48126 3.88809,-0.74221 0.77339,-3.57832 3.49914,-0.43689 0.83315,-3.64908 3.53469,-0.18759 1.33712,-3.417 3.20551,0.047 1.08107,-3.23456 3.83084,-0.46522 1.0009,-3.0442 2.83974,0.3076 1.316,-3.00236 3.38138,0.0548 1.30548,-2.79505 3.40883,0.90111 0.86512,-3.14727 2.93892,0.43672 1.04241,-2.47438 2.20385,1.02709 1.47432,-2.64895 2.41227,1.33972 1.23778,-2.4087 2.52854,1.04768 1.57097,-2.63676 2.56754,1.50058 1.49682,-2.39858 1.85357,1.67628 0.90807,-1.91245 1.38512,1.87688 2.22384,-0.46526 1.6394,1.44218 -2.69797,1.44847 2.46948,0.72658 -1e-5,0 -3e-5,0 z"
         id="path3779"
         sodipodi:nodetypes="cccccccccccccccccccccccccccccccccccccccccccccccccccccccccccccccccccccccccccccccccccccccc" />
    </g>
  </g>
</svg>
